<svg width="50" height="50" viewBox="0 0 50 50" fill="none" xmlns="http://www.w3.org/2000/svg">
<path d="M50 25C50 38.8071 38.8071 50 25 50C11.1929 50 0 38.8071 0 25C0 11.1929 11.1929 0 25 0C38.8071 0 50 11.1929 50 25Z" fill="white"/>
<path d="M25 25C25 38.8071 25 25 25 50C11.1929 50 0 38.8071 0 25C0 11.1929 11.1929 0 25 0C25 25 25 11.1929 25 25Z" fill="#FF5C5C"/>
<path d="M15 39.6667C15.3774 34.6667 20.6604 32 25.1887 32C29.717 32 34.2453 35 35 40" stroke="#171000" stroke-width="2.5"/>
<path d="M33.6858 19C33.6858 23.8251 29.7476 27.75 24.873 27.75C19.9983 27.75 16.0601 23.8251 16.0601 19C16.0601 14.1749 19.9983 10.25 24.873 10.25C29.7476 10.25 33.6858 14.1749 33.6858 19Z" stroke="#171000" stroke-width="2.5"/>
</svg>
